<svg xmlns="http://www.w3.org/2000/svg" width="512" height="512" viewBox="0 0 512 512" x="0" y="0">
  <g transform="matrix(4.113773792677985, 0, 0, 4.113773792677985, -0.0000039301671524788645, -780.2705216449638)">
    <path fill="Gray" 
          d="M60.429,22.609v15.668c9.984,1.137,17.74,9.608,17.74,19.895c0,11.064-8.967,20.031-20.029,20.031 c-10.288,0-18.759-7.756-19.896-17.74H22.576c1.181,18.615,16.65,33.348,35.564,33.348c19.682,0,35.639-15.955,35.639-35.639 C93.779,39.259,79.047,23.791,60.429,22.609z" 
          transform="matrix(1.427236557006836, 0, 0, 1.427236557006836, -9.384902000427246, 180.2406768798828)">
    </path>
    <polygon fill="#14255c"
             points="42.013,10.077 42.013,30.642 17.709,6.339 6.307,17.743 30.61,42.045 10.043,42.045 10.043,58.172 58.14,58.172 58.14,10.077"
             transform="matrix(1.427236557006836, 0, 0, 1.427236557006836, -9.001580238342285, 180.62542724609375)">
    </polygon>
  </g>
</svg>